<?xml version="1.0" encoding="UTF-8"?><svg id="Ebene_1" xmlns="http://www.w3.org/2000/svg" width="700" height="700" viewBox="0 0 700 700"><defs><style>.cls-1{fill:#04293a;}.cls-2{fill:#fff;}.cls-3{fill:#c39052;}</style></defs><rect class="cls-2" width="700" height="700"/><path class="cls-3" d="M359.244,279.573l-88.098-83.684,14.705-15.707,72.868,69.165,49.235-50.29,15.23,15.179-63.94,65.337Z"/><path class="cls-1" d="M358.974,417.112c-83.634,0-151.775-68.373-151.775-152.586s68.01-152.586,151.775-152.586c43.721,0,85.341,19.008,114.225,52.006l-16.149,14.256c-24.814-28.379-60.526-44.746-98.076-44.746-71.817,0-130.243,58.737-130.243,130.938s58.426,130.939,130.243,130.939c37.55,0,73.262-16.368,98.076-44.747l16.149,14.256c-28.753,33.262-70.504,52.27-114.225,52.27Z"/><path class="cls-1" d="M219.521,527.912c0,5.936-.989,11.386-2.968,16.352-1.978,4.965-4.76,9.24-8.344,12.824s-7.896,6.365-12.936,8.344c-5.04,1.978-10.64,2.968-16.8,2.968h-30.856v-80.976h30.856c6.16,0,11.76,1.008,16.8,3.024,5.04,1.978,9.352,4.76,12.936,8.344,3.584,3.546,6.366,7.802,8.344,12.768,1.979,4.965,2.968,10.416,2.968,16.352Zm-15.456,0c0-4.443-.597-8.419-1.792-11.928-1.157-3.547-2.856-6.534-5.096-8.96-2.202-2.464-4.89-4.35-8.064-5.656-3.136-1.307-6.682-1.96-10.64-1.96h-15.736v57.008h15.736c3.958,0,7.504-.653,10.64-1.96,3.174-1.307,5.862-3.173,8.064-5.6,2.24-2.464,3.939-5.451,5.096-8.96,1.195-3.547,1.792-7.542,1.792-11.984Z"/><path class="cls-1" d="M247.94,499.408v22.456h28.336v11.592h-28.336v22.904h35.952v12.04h-51.072v-80.976h51.072v11.984h-35.952Z"/><path class="cls-1" d="M340.026,537.824l-9.856-26.936c-.485-1.195-.989-2.614-1.512-4.256-.522-1.643-1.045-3.416-1.568-5.32-.485,1.904-.989,3.696-1.512,5.376-.522,1.642-1.026,3.08-1.512,4.312l-9.8,26.824h25.76Zm26.6,30.576h-11.648c-1.306,0-2.37-.318-3.192-.952-.821-.672-1.437-1.494-1.848-2.464l-6.048-16.52h-33.544l-6.048,16.52c-.298,.858-.877,1.642-1.736,2.352-.858,.709-1.922,1.064-3.192,1.064h-11.76l31.864-80.976h15.344l31.808,80.976Z"/><path class="cls-1" d="M422.44,555.968v12.432h-47.432v-80.976h15.064v68.544h32.368Z"/><path class="cls-1" d="M448.315,499.408v22.456h28.336v11.592h-28.336v22.904h35.952v12.04h-51.072v-80.976h51.072v11.984h-35.952Z"/><path class="cls-1" d="M522.089,525.952c2.838,0,5.302-.355,7.392-1.064,2.128-.71,3.864-1.68,5.208-2.912,1.382-1.27,2.408-2.763,3.08-4.48,.672-1.718,1.008-3.603,1.008-5.656,0-4.107-1.362-7.261-4.088-9.464-2.688-2.203-6.813-3.304-12.376-3.304h-9.632v26.88h9.408Zm38.752,42.448h-13.608c-2.576,0-4.442-1.008-5.6-3.024l-17.024-25.928c-.634-.971-1.344-1.662-2.128-2.072-.746-.411-1.867-.616-3.36-.616h-6.44v31.64h-15.064v-80.976h24.696c5.488,0,10.192,.578,14.112,1.736,3.958,1.12,7.187,2.706,9.688,4.76,2.539,2.053,4.406,4.517,5.6,7.392,1.195,2.837,1.792,5.973,1.792,9.408,0,2.725-.41,5.301-1.232,7.728-.784,2.426-1.941,4.629-3.472,6.608-1.493,1.978-3.36,3.714-5.6,5.208-2.202,1.493-4.722,2.669-7.56,3.528,.971,.56,1.867,1.232,2.688,2.016,.821,.747,1.568,1.642,2.24,2.688l20.272,29.904Z"/></svg>