<svg xmlns="http://www.w3.org/2000/svg" xmlns:xlink="http://www.w3.org/1999/xlink" width="21" height="15" viewBox="0 0 21 15" preserveAspectRatio="xMaxYMax slice"><defs/><defs><rect id="b" width="21" height="15" x="0" y="0"/><rect id="d" width="21" height="15" x="0" y="0"/><rect id="f" width="21" height="15" x="0" y="0"/><rect id="h" width="21" height="15" x="0" y="0"/><rect id="j" width="21" height="15" x="0" y="0"/><rect id="n" width="21" height="15" x="0" y="0"/><linearGradient id="a" x1="50%" x2="50%" y1="0%" y2="100%"><stop offset="0%" stop-color="#FFFFFF"/><stop offset="100%" stop-color="#F0F0F0"/></linearGradient><linearGradient id="o" x1="50%" x2="50%" y1="0%" y2="100%"><stop offset="0%" stop-color="#FF212E"/><stop offset="100%" stop-color="#FD0D1B"/></linearGradient><path id="l" d="M0 5V0h21v5H0zm12 0h1l-.2734.5468C12.6014 5.7971 12.2734 6 12 6V5zm-2 0h1v1h-1V5zM8 5h1v1c-.2761 0-.5964-.1928-.7266-.4532L8 5z"/></defs><g fill="none" fill-rule="evenodd"><rect width="21" height="15" fill="url(#a)" fill-rule="nonzero"/><mask id="c" fill="white"><use xlink:href="#b"/></mask><g mask="url(#c)"><rect width="21" height="5" fill="#000000" fill-rule="nonzero"/><rect width="21" height="5" fill="#FF202D"/></g><mask id="e" fill="white"><use xlink:href="#d"/></mask><g mask="url(#e)" opacity=".5"><path fill="#1895DB" d="M8 4l.5-.5.5.5v1H8V4zm2 0l.5-.5.5.5v1h-1V4zm2 0l.5-.5.5.5v1h-1V4z"/><path fill="#000000" fill-rule="nonzero" d="M8 4l.5-.5.5.5v1H8V4zm2 0l.5-.5.5.5v1h-1V4zm2 0l.5-.5.5.5v1h-1V4z"/></g><g><mask id="g" fill="white"><use xlink:href="#f"/></mask><path fill="#191F94" fill-rule="nonzero" d="M9 4l.5-.5.5.5v1H9V4zm2 0l.5-.5.5.5v1h-1V4z" mask="url(#g)" opacity=".5"/></g><g><mask id="i" fill="white"><use xlink:href="#h"/></mask><rect width="21" height="5" y="10" fill="#2027AC" fill-rule="nonzero" mask="url(#i)"/></g><g><mask id="k" fill="white"><use xlink:href="#j"/></mask><g mask="url(#k)"><path fill="#000000" fill-rule="nonzero" d="M0 10V5h21v5H0zm12 0h1l-.2734.5468C12.6014 10.7971 12.2734 11 12 11v-1zm-2 0h1v1h-1v-1zm-2 0h1v1c-.2761 0-.5964-.1928-.7266-.4532L8 10z"/><g transform="translate(0 5)"><mask id="m" fill="white"><use xlink:href="#l"/></mask><use fill="#FFFFFF" xlink:href="#l"/><rect width="20" height="14" x=".5" y="-4.5" stroke="#CDD4D8" mask="url(#m)"/></g></g></g><g><mask id="p" fill="white"><use xlink:href="#n"/></mask><path fill="url(#o)" fill-rule="nonzero" d="M10 5h1v1h-1V5zm2 0h.5l.5 1h-1V5zM8.5 5H9v1H8l.5-1zM9 6h1v1H9V6zm2 0h1v1h-1V6zm-1 1h1v1h-1V7zm2 0h1v1h-1V7zm-1 1h1v1h-1V8zM8 7h1v1H8V7zm1 1h1v1H9V8zM8 9h1v1H8V9zm2 0h1v1h-1V9zm2 0h1v1h-1V9zm-1 1h1v1h-1v-1zm-2 0h1v1H9v-1z" mask="url(#p)"/></g></g></svg>