<svg xmlns="http://www.w3.org/2000/svg" xmlns:xlink="http://www.w3.org/1999/xlink" width="21" height="15" viewBox="0 0 21 15" preserveAspectRatio="xMaxYMax slice"><defs/><defs><rect id="a" width="21" height="15" x="0" y="0"/><rect id="e" width="21" height="15" x="0" y="0"/><circle id="c" cx="3.5" cy="3.5" r="3.5"/></defs><g fill="none" fill-rule="evenodd"><rect width="21" height="15" fill="#FFFFFF" fill-rule="nonzero"/><mask id="b" fill="white"><use xlink:href="#a"/></mask><g mask="url(#b)"><circle cx="3.5" cy="3.5" r="3.5" fill="#E01B41" transform="translate(7 4)"/><g transform="translate(7 4)"><mask id="d" fill="white"><use xlink:href="#c"/></mask><path fill="#0E4B9C" d="M0 4c1 .9375 2.5 1.5 3.5 0s3-1.5 3.5 0 0 3 0 3H0s-1-3.9375 0-3z" mask="url(#d)"/></g></g><g><mask id="f" fill="white"><use xlink:href="#e"/></mask><path fill="#262626" fill-rule="nonzero" d="M14.208 3.9225c-.0706-.1224-.0352-.275.0907-.3477l.429-.2477c.1206-.0696.2754-.0275.3463.0954l1.2443 2.155c.0706.1224.0352.275-.0907.3477l-.429.2477c-.1206.0696-.2754.0275-.3464-.0954l-1.2442-2.155zm1.299-.75c-.0706-.1224-.0352-.275.0907-.3477l.429-.2477c.1206-.0696.2755-.0275.3464.0954l1.2442 2.155c.0706.1224.0352.275-.0906.3477l-.429.2477c-.1207.0696-.2755.0275-.3464-.0954l-1.2442-2.155zm-12.1243 7c-.0706-.1224-.0352-.275.0906-.3477l.429-.2477c.1207-.0696.2755-.0275.3464.0954l1.2442 2.155c.0707.1224.0353.275-.0906.3477l-.429.2477c-.1206.0696-.2755.0275-.3464-.0954l-1.2442-2.155zm1.299-.75c-.0706-.1224-.0352-.275.0907-.3477l.429-.2477c.1206-.0696.2754-.0275.3464.0954l1.2442 2.155c.0706.1224.0352.275-.0907.3477l-.429.2477c-.1206.0696-.2754.0275-.3463-.0954l-1.2443-2.155zm10.7705-.5c.0707-.1224.2206-.168.3465-.0954l.429.2477c.1206.0697.1615.2248.0906.3477l-1.2443 2.155c-.0706.1224-.2205.168-.3464.0954l-.429-.2477c-.1206-.0697-.1615-.2248-.0906-.3477l1.2442-2.155zm1.299.75c.0707-.1224.2206-.168.3465-.0954l.429.2477c.1206.0697.1615.2248.0906.3477l-1.2442 2.155c-.0707.1224-.2206.168-.3464.0954l-.429-.2477c-.1207-.0697-.1616-.2248-.0906-.3477l1.2442-2.155zm-12.1243-7c.0707-.1224.2206-.168.3464-.0954l.429.2477c.1207.0697.1616.2248.0906.3477l-1.2442 2.155c-.0706.1224-.2205.168-.3464.0954l-.429-.2477c-.1206-.0697-.1615-.2248-.0906-.3477l1.2442-2.155zm1.299.75c.0707-.1224.2206-.168.3465-.0954l.429.2477c.1206.0697.1615.2248.0906.3477l-1.2442 2.155c-.0707.1224-.2206.168-.3465.0954l-.429-.2477c-.1206-.0697-.1615-.2248-.0906-.3477l1.2443-2.155z" mask="url(#f)" opacity=".75"/></g><rect width="20" height="14" x=".5" y=".5" stroke="#CDD4D8"/></g></svg>