<?xml version="1.0" encoding="utf-8"?>
<!-- Generator: Adobe Illustrator 22.0.0, SVG Export Plug-In . SVG Version: 6.00 Build 0)  -->
<svg version="1.0" id="Ebene_1" xmlns="http://www.w3.org/2000/svg" xmlns:xlink="http://www.w3.org/1999/xlink" x="0px" y="0px"
	 width="700px" height="700px" viewBox="0 0 700 700" style="enable-background:new 0 0 700 700;" xml:space="preserve">
<style type="text/css">
	.st0{fill:#C39052;}
	.st1{fill:#04293A;}
</style>
<g>
	<polygon class="st0" points="371.4,374.8 239,249.8 261.1,226.3 370.6,329.7 444.4,254.5 467.4,277.1 	"/>
	<path class="st1" d="M371,580.2c-125.7,0-227.9-102.2-227.9-227.9c0-125.7,102.2-227.9,227.9-227.9c65.7,0,128.2,28.4,171.5,77.8
		l-24.3,21.3c-37.2-42.4-90.9-66.8-147.2-66.8c-107.9,0-195.7,87.8-195.7,195.7S263.1,547.9,371,547.9c56.4,0,110.1-24.4,147.3-66.9
		l24.3,21.2C499.2,551.8,436.7,580.2,371,580.2z"/>
</g>
</svg>
