<svg height="100" viewBox="0 0 100 100" width="100" xmlns="http://www.w3.org/2000/svg"><g fill="none" stroke-linecap="round" stroke-linejoin="round"><path d="m35.485 11.625h-.2a5.724 5.724 0 0 0 -4.446 2.108 6.245 6.245 0 0 0 -4.447-2.108h-.2a5.657 5.657 0 0 0 -5.456 5.622 6 6 0 0 0 1.818 4.218l8.287 8.235 8.285-8.232a5.545 5.545 0 0 0 1.819-4.117 5.544 5.544 0 0 0 -5.364-5.72z" stroke="#c39052"/><g stroke="#81949c"><path d="m51.407 17.064 1.286-.81a48 48 0 0 1 9.424-4.229c2.732-.939 9.467 2.808 9.467 2.808 5.654-1.808 21.127 3.107 19.506 10.015 0 0 4.995-1.428 7.17 2.332 3.415 5.9-1 8.064-3.909 11.043-1.159 1.19-2.561 2.563-4.06 4.006l.011-.01c-1 2.816-5.863 20.054-6.985 20.68-4.572 2.552-16.334 4.165-21.585 6.178-1.181.453-2.359.914-3.516 1.425-5.259 2.328-8.807 3.1-11.685 6.2l-4.031-6.248a15.74 15.74 0 0 1 -.16 5.88 15.9 15.9 0 0 1 -7.654 10.435 16.18 16.18 0 0 1 -1.866.913 15.628 15.628 0 0 1 -5.769 1.176l7.082 2.985-.035.042-6.148 7.415"/><path d="m.5 78.521 6.988-8.621.121-.153 3.948 6.113a15.718 15.718 0 0 1 .16-5.88l-2.587-2.18 2.587 2.171a15.943 15.943 0 0 1 9.52-11.344 15.629 15.629 0 0 1 5.769-1.177l-7.325-3.086.109-.139 16.971-17.536"/><path d="m28.423 73.954a1.587 1.587 0 0 1 -2.163.6l-.014-.008a1.616 1.616 0 0 1 -.614-2.187 1.587 1.587 0 0 1 2.163-.6l.014.008a1.616 1.616 0 0 1 .614 2.187z"/><path d="m16.145 79.382a12.376 12.376 0 0 0 16.867 4.672l.11-.063a12.6 12.6 0 0 0 4.788-17.063 12.375 12.375 0 0 0 -16.866-4.672l-.111.064a12.6 12.6 0 0 0 -4.788 17.062z"/><path d="m13.355 80.979a15.548 15.548 0 0 0 21.19 5.869l.139-.079a15.828 15.828 0 0 0 6.016-21.437 15.546 15.546 0 0 0 -21.188-5.871c-.048.026-.095.053-.142.081a15.826 15.826 0 0 0 -6.015 21.437z"/><path d="m21.237 58.629-3.837-3.222 1.241-1.48 8.367 3.525a15.64 15.64 0 0 0 -5.771 1.177zm-9.52 11.348a15.718 15.718 0 0 0 -.16 5.88l-4.923-7.623 1.242-1.48zm34.462 9.58-3.841-3.223a15.74 15.74 0 0 0 .16-5.88l4.922 7.623zm-9.522 11.343-1.242 1.48-8.366-3.526a15.628 15.628 0 0 0 5.769-1.176z"/><path d="m21.237 58.629a15.941 15.941 0 0 0 -9.52 11.348l-7.444-6.247 9.521-11.347zm21.1 17.7 7.444 6.246-9.52 11.352-7.443-6.245a16.18 16.18 0 0 0 1.866-.913 15.9 15.9 0 0 0 7.654-10.435z"/><path d="m27.564 64.127-.664 7.433m-1.46 1.807-2.755.538"/><path d="m94.351 38.228c-5.552 5.7-16.649 15.6-17.4 17.169"/><path d="m10.277 18.78c0-10.1 9.208-18.28 20.565-18.28.1 0 .2.011.3.014s.184-.014.278-.014a20.066 20.066 0 0 1 8.68 1.969c6.7 3.011 11.307 9.177 11.307 16.311a17.245 17.245 0 0 1 -5.919 12.82c-.046.047-.086.1-.133.144l1.2 5.655-5.819-2.274a20.054 20.054 0 0 1 -9.32 2.274 33.45 33.45 0 0 1 -4.584-.5c-9.744-2.012-16.555-8.979-16.555-18.119z"/></g></g></svg>