<svg xmlns="http://www.w3.org/2000/svg" width="100" height="100" viewBox="0 0 100 100"><defs><style>.a,.b,.c,.d{fill:none;}.a,.c,.d{stroke:#81949c;}.a,.b{stroke-linecap:round;stroke-linejoin:round;}.b{stroke:#c39052;}.c,.d{stroke-linecap:square;}.c{stroke-miterlimit:10;}</style></defs><path class="a" d="M51.5,26.876V5.676a4.951,4.951,0,0,0-4.9-5H5.5a4.952,4.952,0,0,0-5,4.9v22.1a4.95,4.95,0,0,0,4.9,5H18.5l16,8.5-4-8.5H45.9"/><circle class="b" cx="62.8" cy="86.976" r="1.2"/><circle class="b" cx="62.8" cy="95.176" r="1.2"/><path class="a" d="M51.6,65.076c2.9,3.2,6.6,5.3,10.9,5.3,4.1,0,7.8-2.1,10.7-5.2"/><path class="a" d="M26,86.376a14.08,14.08,0,0,1,13.5-10.5h4l8-2c2.4,4.7,6.1,7.1,11,7s8.6-2.4,11-7l8,2h4a14.063,14.063,0,0,1,14,14.1h0v9.6"/><path class="c" d="M73.5,64.676v9.2c-2.4,4.6-6.1,6.9-11,7s-8.6-2.3-11-7v-8.9c2.9,3.4,6.6,5.5,11,5.5S70.6,68.076,73.5,64.676Z"/><path class="a" d="M99.1,86.376a14.08,14.08,0,0,0-13.5-10.5h-4l-8-2c-2.4,4.7-6.1,7.1-11,7-4.9,0-8.6-2.4-11-7l-8,2h-4a14.064,14.064,0,0,0-14,14.1h0v9.6"/><path class="d" d="M62.4,70.376c11.8,0,18.7-16.6,18.7-27.1s-5.3-18.9-18.7-18.9-18.7,8.5-18.7,18.9S50.6,70.376,62.4,70.376Z"/><path class="a" d="M62.4,41.376c3.6-1.2,8.2-5.6,11.1-5.6,2.4,0,2.4,5.6,7.1,11.3a19.119,19.119,0,0,0,.5-4.1c0-10.3-5.4-18.7-18.7-18.7s-18.7,8.3-18.7,18.6a8.651,8.651,0,0,0,.1,1.6c.6-2.3,1.8-5.1,3.3-5.6C48.2,38.576,54.7,43.976,62.4,41.376Z"/><polygon class="b" points="25.5 5.676 29 12.776 36.9 13.876 31.2 19.376 32.5 27.176 25.5 23.576 18.5 27.176 19.9 19.376 14.2 13.876 22 12.776 25.5 5.676"/></svg>