<svg xmlns="http://www.w3.org/2000/svg" xmlns:xlink="http://www.w3.org/1999/xlink" width="21" height="15" viewBox="0 0 21 15" preserveAspectRatio="xMaxYMax slice"><defs/><defs><rect id="a" width="21" height="15" x="0" y="0"/><rect id="c" width="21" height="15" x="0" y="0"/><rect id="e" width="21" height="15" x="0" y="0"/><rect id="j" width="21" height="15" x="0" y="0"/><polygon id="g" points="0 0 10 7.5 0 15"/><polygon id="h" points="0 0 10 7.5 0 15"/></defs><g fill="none" fill-rule="evenodd"><rect width="21" height="15" fill="#FFFFFF" fill-rule="nonzero"/><mask id="b" fill="white"><use xlink:href="#a"/></mask><rect width="21" height="8" y="7" fill="#DD1C34" fill-rule="nonzero" mask="url(#b)"/><mask id="d" fill="white"><use xlink:href="#c"/></mask><rect width="21" height="7" fill="#0D4BC3" fill-rule="nonzero" mask="url(#d)"/><g><mask id="f" fill="white"><use xlink:href="#e"/></mask><g mask="url(#f)"><use fill="#FFFFFF" fill-rule="nonzero" xlink:href="#g"/><mask id="i" fill="white"><use xlink:href="#h"/></mask><use fill="#FFFFFF" fill-rule="nonzero" xlink:href="#h"/><rect width="20" height="14" x=".5" y=".5" stroke="#CDD4D8" mask="url(#i)"/></g></g><g><mask id="k" fill="white"><use xlink:href="#j"/></mask><path fill="#FDD64D" fill-rule="nonzero" d="M3.399 8.495l-.8557 1.3147.3245-1.5348a1.006 1.006 0 01-.1427-.1427l-1.5348.3245L2.505 7.601a1.0119 1.0119 0 010-.2018l-1.3147-.8558 1.5348.3245a1.006 1.006 0 01.1427-.1427l-.3245-1.5348.8558 1.3147a1.0119 1.0119 0 01.2018 0l.8558-1.3147-.3245 1.5348c.0522.0427.1.0905.1427.1427l1.5348-.3245-1.3147.8558a1.0119 1.0119 0 010 .2018l1.3147.8558-1.5348-.3245a1.006 1.006 0 01-.1427.1427l.3245 1.5348L3.601 8.495a1.0119 1.0119 0 01-.2018 0zM7.5 8a.5.5 0 110-1 .5.5 0 010 1zm-6-5a.5.5 0 110-1 .5.5 0 010 1zm0 10a.5.5 0 110-1 .5.5 0 010 1z" mask="url(#k)"/></g></g></svg>