<svg xmlns="http://www.w3.org/2000/svg" xmlns:xlink="http://www.w3.org/1999/xlink" width="21" height="15" viewBox="0 0 21 15" preserveAspectRatio="xMaxYMax slice"><defs/><defs><rect id="a" width="21" height="15" x="0" y="0"/><rect id="c" width="21" height="15" x="0" y="0"/><rect id="e" width="21" height="7" x="0" y="0"/><rect id="g" width="21" height="15" x="0" y="0"/></defs><g fill="none" fill-rule="evenodd"><rect width="21" height="15" fill="#FFFFFF" fill-rule="nonzero"/><mask id="b" fill="white"><use xlink:href="#a"/></mask><g mask="url(#b)"><rect width="21" height="8" fill="#000000" fill-rule="nonzero"/><rect width="21" height="8" fill="#E12237"/></g><g><mask id="d" fill="white"><use xlink:href="#c"/></mask><g mask="url(#d)"><rect width="21" height="7" fill="#000000" fill-rule="nonzero" transform="translate(0 8)"/><g transform="translate(0 8)"><mask id="f" fill="white"><use xlink:href="#e"/></mask><use fill="#FFFFFF" xlink:href="#e"/><rect width="20" height="14" x=".5" y="-7.5" stroke="#CDD4D8" mask="url(#f)"/></g></g></g><g><mask id="h" fill="white"><use xlink:href="#g"/></mask><path fill="#FFFFFF" fill-rule="nonzero" d="M6.8736 1.6569A2.4947 2.4947 0 006 1.5C4.6193 1.5 3.5 2.6193 3.5 4S4.6193 6.5 6 6.5c.3073 0 .6017-.0555.8736-.1569A2.9874 2.9874 0 015 7C3.3431 7 2 5.6569 2 4s1.3431-3 3-3c.7088 0 1.3602.2458 1.8736.6569zM5.5 4a.5.5 0 110-1 .5.5 0 010 1zm1 2a.5.5 0 110-1 .5.5 0 010 1zm2 0a.5.5 0 110-1 .5.5 0 010 1zm1-2a.5.5 0 110-1 .5.5 0 010 1zm-2-1.5a.5.5 0 110-1 .5.5 0 010 1z" mask="url(#h)"/></g></g></svg>