<svg xmlns="http://www.w3.org/2000/svg" xmlns:xlink="http://www.w3.org/1999/xlink" width="21" height="15" viewBox="0 0 21 15" preserveAspectRatio="xMaxYMax slice"><defs/><defs><rect id="a" width="21" height="15" x="0" y="0"/><rect id="c" width="21" height="15" x="0" y="0"/><rect id="g" width="21" height="15" x="0" y="0"/><rect id="i" width="21" height="15" x="0" y="0"/><rect id="k" width="21" height="15" x="0" y="0"/><rect id="m" width="21" height="15" x="0" y="0"/><rect id="o" width="21" height="15" x="0" y="0"/><polygon id="e" points="7.0855 11.4373 2.0802 11.4373 2.0802 6.4373 7.0855 6.4373 0 1.6581 1.1184 0 10.0802 6.0448 10.0802 .4373 15.0802 .4373 15.0802 6.0448 24.0421 0 25.1605 1.6581 18.0749 6.4373 23.0802 6.4373 23.0802 11.4373 18.0749 11.4373 25.1605 16.2166 24.0421 17.8747 15.0802 11.8298 15.0802 17.4373 10.0802 17.4373 10.0802 11.8298 1.1184 17.8747 0 16.2166"/></defs><g fill="none" fill-rule="evenodd"><rect width="21" height="15" fill="#FFFFFF" fill-rule="nonzero"/><mask id="b" fill="white"><use xlink:href="#a"/></mask><rect width="21" height="15" fill="#0A17A7" fill-rule="nonzero" mask="url(#b)"/><mask id="d" fill="white"><use xlink:href="#c"/></mask><g mask="url(#d)"><g transform="translate(-2.0802 -1.4373)"><mask id="f" fill="white"><use xlink:href="#e"/></mask><use fill="#FFFFFF" fill-rule="nonzero" xlink:href="#e"/><rect width="20" height="14" x="2.5802" y="1.9373" stroke="#CDD4D8" mask="url(#f)"/></g></g><mask id="h" fill="white"><use xlink:href="#g"/></mask><path stroke="#DB1F35" stroke-linecap="round" stroke-width=".5" d="M14.001 4.7491L23.5-1.5" mask="url(#h)"/><g><mask id="j" fill="white"><use xlink:href="#i"/></mask><path stroke="#DB1F35" stroke-linecap="round" stroke-width=".5" d="M15.0096 16.0128l8.5154-5.7397" mask="url(#j)" transform="matrix(1 0 0 -1 0 26.2859)"/></g><g><mask id="l" fill="white"><use xlink:href="#k"/></mask><path stroke="#DB1F35" stroke-linecap="round" stroke-width=".5" d="M6.0042 4.7328l-8.8823-5.986" mask="url(#l)"/></g><g><mask id="n" fill="white"><use xlink:href="#m"/></mask><path stroke="#DB1F35" stroke-linecap="round" stroke-width=".5" d="M6.9675 16.7328l-9.8456-6.5291" mask="url(#n)" transform="matrix(1 0 0 -1 0 26.9365)"/></g><g><mask id="p" fill="white"><use xlink:href="#o"/></mask><polygon fill="#E6273E" fill-rule="nonzero" points="0 9 9 9 9 15 12 15 12 9 21 9 21 6 12 6 12 0 9 0 9 6 0 6" mask="url(#p)"/></g></g></svg>